Coordinates
version=1
nRows=26
nColumns=22
inDegrees=yes

Units are S.I. units (second, meters, Newtons, ...)
If the header above contains a line with 'inDegrees', this indicates whether rotational values are in degrees (yes) or radians (no).

endheader
time	pelvis_tilt	pelvis_list	pelvis_rotation	pelvis_tx	pelvis_ty	pelvis_tz	hip_flexion_r	hip_adduction_r	hip_rotation_r	knee_angle_r	ankle_angle_r	subtalar_angle_r	hip_flexion_l	hip_adduction_l	hip_rotation_l	knee_angle_l	ankle_angle_l	subtalar_angle_l	lumbar_extension	lumbar_bending	lumbar_rotation
      1.98000000	     -1.00646517	      0.69444782	     86.42920349	      0.23537856	      0.91186393	     -0.15579194	     23.85261557	     -2.75658765	     -6.54741864	     -2.08128651	      0.45568113	     12.46484075	     -6.19148971	      6.81863740	     11.28621133	    -20.58130591	     19.29112847	     -5.57758142	     -6.79965146	     -9.58598601	    -11.50394174
      1.99000000	     -1.16274366	      0.75394462	     86.59565494	      0.23765428	      0.91015580	     -0.16354451	     24.33313970	     -2.68785168	     -6.61032639	     -3.47720937	      0.58684996	     11.78196135	     -6.66851903	      6.87464671	     11.36790457	    -20.84940801	     19.55496216	     -5.69322811	     -6.80404103	     -9.61906003	    -11.51503830
      2.00000000	     -1.31201956	      0.79060426	     86.76070220	      0.23993529	      0.90844520	     -0.17151880	     24.73626495	     -2.61268943	     -6.35616045	     -4.86021646	      0.63663012	     11.17603511	     -7.15050247	      6.91111495	     11.41513592	    -21.08579580	     19.78314081	     -5.78667667	     -6.75092611	     -9.62857864	    -11.54550639
      2.01000000	     -1.44191015	      0.78740457	     86.95493058	      0.24220700	      0.90675976	     -0.17962226	     25.06035490	     -2.51527734	     -5.85713172	     -6.14702555	      0.50258863	     10.45808186	     -7.57695853	      6.91655137	     11.47998882	    -21.36536699	     19.95421586	     -5.87071820	     -6.64022712	     -9.61113886	    -11.57207151
      2.02000000	     -1.53081425	      0.75794941	     87.17048398	      0.24449218	      0.90517897	     -0.18792021	     25.29549791	     -2.37199935	     -5.19637740	     -7.32398132	      0.27337530	      9.71719301	     -7.99984028	      6.85675842	     11.53520103	    -21.61713535	     20.06859174	     -5.89402158	     -6.47357477	     -9.53957873	    -11.63127012
      2.03000000	     -1.56291776	      0.69075527	     87.40092304	      0.24680465	      0.90374661	     -0.19637144	     25.46063187	     -2.16650482	     -4.42899446	     -8.36084009	     -0.11774155	      8.92471027	     -8.38994752	      6.71755875	     11.58890933	    -21.86745176	     20.09850480	     -5.86212751	     -6.23930204	     -9.40195019	    -11.69380593
      2.04000000	     -1.52321498	      0.59614198	     87.69567050	      0.24901692	      0.90251669	     -0.20489684	     25.60485141	     -1.92680582	     -3.81726167	     -9.34854909	     -0.62213777	      7.92212867	     -8.71527807	      6.49066244	     11.70352011	    -22.18690004	     20.07175871	     -5.76148000	     -5.97123680	     -9.17516525	    -11.77780406
      2.05000000	     -1.39484537	      0.46328532	     88.02327180	      0.25116275	      0.90153118	     -0.21352311	     25.74123414	     -1.63549918	     -3.35096150	    -10.27135381	     -1.27744279	      6.93261766	     -8.97282784	      6.16162048	     11.85254221	    -22.55537979	     19.94321507	     -5.61565824	     -5.64109717	     -8.83997999	    -11.87099308
      2.06000000	     -1.17948495	      0.30773692	     88.39607048	      0.25318485	      0.90083427	     -0.22222311	     25.89761226	     -1.32198848	     -3.15395889	    -11.21261223	     -1.99061695	      6.01309131	     -9.15335175	      5.74184826	     12.05240865	    -23.01267616	     19.70870615	     -5.43205828	     -5.27175871	     -8.39843099	    -11.98092158
      2.07000000	     -0.87655050	      0.14573874	     88.80291523	      0.25506949	      0.90045967	     -0.23101444	     26.07467922	     -0.99750864	     -3.25911057	    -12.21657891	     -2.68416398	      5.29343164	     -9.27044931	      5.23781377	     12.28657222	    -23.55880206	     19.36495867	     -5.23616742	     -4.87571799	     -7.84631480	    -12.11471376
      2.08000000	     -0.51074014	      0.00341855	     89.21977226	      0.25683423	      0.90042728	     -0.23988950	     26.25965781	     -0.68611017	     -3.65269149	    -13.31436403	     -3.24397540	      4.77351538	     -9.33383322	      4.69023268	     12.54215090	    -24.22376051	     18.85919807	     -5.00057860	     -4.47918025	     -7.21545266	    -12.20064979
      2.09000000	     -0.07978539	     -0.08789027	     89.63393223	      0.25852326	      0.90079322	     -0.24891749	     26.38168645	     -0.37383385	     -4.24410478	    -14.45257973	     -3.64787546	      4.62642214	     -9.40654149	      4.08785397	     12.77658275	    -24.94663445	     18.19484611	     -4.82710816	     -4.10758443	     -6.50475301	    -12.31606942
      2.10000000	      0.38716965	     -0.14682943	     90.02775431	      0.26017147	      0.90148260	     -0.25805708	     26.44643959	     -0.07060197	     -4.95801353	    -15.59192075	     -3.85014905	      4.75250677	     -9.44567286	      3.46789685	     12.97878904	    -25.76374586	     17.36150794	     -4.57487277	     -3.74059600	     -5.75349566	    -12.37498786
      2.11000000	      0.87608726	     -0.14708760	     90.39563913	      0.26180574	      0.90252340	     -0.26728786	     26.38993387	      0.23616311	     -5.67971587	    -16.65905388	     -3.88369337	      5.21343381	     -9.48783187	      2.83763978	     13.12421287	    -26.64846011	     16.33293571	     -4.29996827	     -3.41469685	     -4.97619059	    -12.41771955
      2.12000000	      1.35008547	     -0.08215004	     90.71213037	      0.26349410	      0.90388301	     -0.27655708	     26.19747081	      0.54820009	     -6.28869883	    -17.62203819	     -3.77555689	      6.02714038	     -9.54543870	      2.22697872	     13.16125017	    -27.57568579	     15.07682229	     -3.94301715	     -3.14525185	     -4.21991465	    -12.41889510
      2.13000000	      1.81165080	      0.02530837	     91.03069530	      0.26515850	      0.90549340	     -0.28581048	     25.87124104	      0.86348553	     -6.84252529	    -18.43438816	     -3.52018563	      6.86048781	     -9.58131560	      1.62751983	     13.16632784	    -28.55963614	     13.64493509	     -3.66053353	     -2.91689053	     -3.48174244	    -12.42928083
      2.14000000	      2.22913066	      0.16042539	     91.35313567	      0.26678031	      0.90727690	     -0.29498477	     25.44686413	      1.15858419	     -7.33518125	    -19.11917593	     -3.14019889	      7.64391262	     -9.58187211	      1.06765169	     13.14675928	    -29.58314374	     12.03683456	     -3.39855790	     -2.72306894	     -2.79337904	    -12.44697529
      2.15000000	      2.56531820	      0.32533496	     91.67840779	      0.26837087	      0.90917789	     -0.30397788	     24.93556410	      1.40724795	     -7.72934349	    -19.68553187	     -2.64967892	      8.35410163	     -9.52904269	      0.57699920	     13.06953462	    -30.66542321	     10.24190751	     -3.11838865	     -2.58657930	     -2.20488975	    -12.45490231
      2.16000000	      2.81247967	      0.49598397	     92.04503718	      0.26984316	      0.91112815	     -0.31275105	     24.36324184	      1.58172758	     -8.09442630	    -20.13242992	     -2.08622265	      8.86886061	     -9.39860698	      0.16586446	     13.02440641	    -31.79865738	      8.29275647	     -2.89185701	     -2.48630590	     -1.71964949	    -12.50139107
      2.17000000	      2.98052162	      0.69029240	     92.42802319	      0.27126021	      0.91308779	     -0.32126132	     23.73023572	      1.70159661	     -8.42829828	    -20.48838687	     -1.46597568	      9.33337085	     -9.20402216	     -0.19068343	     12.93838046	    -32.99091283	      6.24287369	     -2.57216219	     -2.45320152	     -1.32851270	    -12.54489915
      2.18000000	      3.07233815	      0.87699853	     92.86371957	      0.27253683	      0.91500764	     -0.32949557	     23.05859169	      1.74787679	     -8.79770439	    -20.73437800	     -0.83791971	      9.60340881	     -8.91250277	     -0.48466673	     12.90956495	    -34.24017359	      4.09658362	     -2.32896384	     -2.45252864	     -1.02690861	    -12.60802324
      2.19000000	      3.10871356	      1.07060232	     93.34064904	      0.27368750	      0.91687510	     -0.33742888	     22.33557795	      1.74567407	     -9.20014742	    -20.87095514	     -0.21901409	      9.75791853	     -8.52845488	     -0.74079605	     12.90182083	    -35.56827121	      1.89410261	     -2.08578225	     -2.50729310	     -0.78628331	    -12.68124681
      2.20000000	      3.12910034	      1.25501317	     93.83824585	      0.27476065	      0.91863591	     -0.34507081	     21.58012526	      1.74660415	     -9.60995975	    -20.89558804	      0.38204166	      9.80720481	     -8.02267960	     -1.00359003	     12.85599312	    -36.99847181	     -0.32576288	     -1.98366938	     -2.59375592	     -0.56233693	    -12.72305967
      2.21000000	      3.08997072	      1.46887910	     94.40684176	      0.27563067	      0.92037308	     -0.35237315	     20.74584448	      1.67556758	    -10.13662213	    -20.80559304	      0.90514322	      9.70978238	     -7.42941788	     -1.21550456	     12.86867904	    -38.53573988	     -2.53960456	     -1.77006479	     -2.76796215	     -0.39869314	    -12.83217897
      2.22000000	      3.08799645	      1.67973010	     94.96225178	      0.27648342	      0.92196659	     -0.35939627	     19.89744765	      1.67906262	    -10.61582812	    -20.64178634	      1.43918501	      9.59079300	     -6.70608801	     -1.48872873	     12.77300792	    -40.20714004	     -4.71977425	     -1.67788516	     -2.97478957	     -0.18370595	    -12.87118967
      2.23000000	      3.08936609	      1.89754321	     95.57618535	      0.27719151	      0.92346437	     -0.36608992	     19.02202630	      1.68382194	    -11.20411577	    -20.39830755	      1.82829422	      9.17210238	     -5.83665227	     -1.78786572	     12.64393110	    -42.03856442	     -6.81423389	     -1.61323316	     -3.23108833	      0.04091467	    -12.97501230
